<?xml version="1.0" encoding="UTF-8"?> <svg xmlns="http://www.w3.org/2000/svg" width="157" height="54" viewBox="0 0 157 54" fill="none"><path d="M27 38.4964V14.0234H32.122V23.2993H41.7102V14.0234H46.8323V38.4964H41.7259V27.6745H32.1377V38.4964H27Z" fill="#16023E"></path><path d="M56.1054 20.5111C56.2771 22.2117 55.7306 32.3842 56.4801 33.7293C57.4796 35.94 61.649 35.2752 62.3517 33.1572C63.2574 31.4876 62.664 22.5054 62.8202 20.5111H67.6611V38.63H62.9763V36.0328C60.8994 39.9596 53.6068 40.006 51.9515 36.0328C50.546 33.5437 51.3893 23.4948 51.1707 20.4492L56.1054 20.5111Z" fill="#16023E"></path><path d="M87.9318 22.6904C94.178 30.1266 85.5114 45.8803 76.8913 36.3106V38.6296H72.2065V14.1875H76.985V22.8759C79.265 19.1037 85.4489 19.3356 87.9318 22.6904ZM83.9498 33.7133C87.5102 28.7817 81.9509 19.6758 77.3286 26.6018C75.158 30.8842 79.1869 38.6296 83.9498 33.6979V33.7133Z" fill="#16023E"></path><path d="M98.2682 18.3597H93.4425V14H98.2682V18.3597ZM93.4272 20.5086H98.2682V38.6276H93.4425L93.4272 20.5086Z" fill="#16023E"></path><path d="M107.637 38.6332H102.952V14.1602H107.637V38.6332Z" fill="#16023E"></path><path d="M127.564 36.3731C118.085 45.247 105.796 32.7245 113.51 22.7993C122.988 13.8016 135.294 26.5252 127.564 36.3731ZM123.738 33.7603C127.142 29.3852 122.879 20.0938 117.304 25.3966C113.9 29.7562 118.21 39.094 123.754 33.7603H123.738Z" fill="#16023E"></path></svg> 