<?xml version="1.0" encoding="UTF-8"?> <svg xmlns="http://www.w3.org/2000/svg" width="157" height="54" viewBox="0 0 157 54" fill="none"><path fill-rule="evenodd" clip-rule="evenodd" d="M9.86445 36.0793C8.52146 34.02 7.45675 31.3776 8.30047 28.956C9.14384 26.5344 10.2788 24.8236 12.2162 24.1312C13.2318 23.7681 16.2882 22.4048 18.6668 24.5119C21.0456 26.6191 22.2392 29.2489 22.3272 31.0775C22.5713 36.1405 15.881 38.2171 14.7054 38.2171C13.121 38.2171 10.7573 37.4481 9.86445 36.0793Z" fill="#FF704C" fill-opacity="0.6"></path><path fill-rule="evenodd" clip-rule="evenodd" d="M19.115 14.14C18.2021 12.8668 15.2798 20.6705 16.6647 21.6328C17.0156 21.8767 21.0968 16.9049 19.115 14.14Z" fill="#424A3C" fill-opacity="0.6"></path><path fill-rule="evenodd" clip-rule="evenodd" d="M14.9477 21.6094C15.1639 22.7465 12.5185 18.9496 13.0614 18.2528C14.3055 16.6553 14.8201 20.9387 14.9477 21.6094Z" fill="#424A3C" fill-opacity="0.6"></path><path fill-rule="evenodd" clip-rule="evenodd" d="M30.1953 35.3553H33.0324V19.8952H30.1953V35.3553Z" fill="#424A3C" fill-opacity="0.6"></path><path fill-rule="evenodd" clip-rule="evenodd" d="M45.1864 24.7943V35.3552H42.4586V34.5059C41.6291 35.2463 40.6252 35.5729 39.5993 35.5729C38.1373 35.5729 36.8278 34.8979 35.9987 33.8747C35.3218 33.0472 34.9292 31.9584 34.9292 30.3905V24.7943H37.7663V30.4997C37.7663 31.4575 37.9624 31.9366 38.2898 32.3068C38.7266 32.7855 39.3377 32.9601 39.883 32.9601C41.0835 32.9601 41.9565 32.1544 42.3494 31.6535V24.7943H45.1864Z" fill="#424A3C" fill-opacity="0.6"></path><path fill-rule="evenodd" clip-rule="evenodd" d="M56.9041 33.1993C55.66 34.8544 54.0885 35.573 52.1027 35.573C48.8288 35.573 46.4282 33.1343 46.4282 30.0857C46.4282 27.0156 48.8946 24.5766 52.1242 24.5766C53.9576 24.5766 55.5945 25.4259 56.5767 26.6889L54.5687 28.4528C54.0012 27.7124 53.15 27.1897 52.1242 27.1897C50.4875 27.1897 49.2656 28.4742 49.2656 30.0857C49.2656 31.7406 50.4657 32.9602 52.19 32.9602C53.3465 32.9602 54.2631 32.2633 54.7212 31.5665L56.9041 33.1993Z" fill="#424A3C" fill-opacity="0.6"></path><path fill-rule="evenodd" clip-rule="evenodd" d="M135.363 28.7342C134.774 27.9499 133.836 27.4276 132.744 27.4276C131.086 27.4276 130.017 28.7991 130.017 30.3238C130.017 31.9785 131.217 33.1979 132.81 33.1979C133.879 33.1979 134.817 32.6754 135.363 31.8914V28.7342ZM138.201 34.3246C138.201 36.2191 137.873 37.3514 137.24 38.2439C136.28 39.5726 134.578 40.3562 132.548 40.3562C130.475 40.3562 128.511 39.3984 127.463 38.179L129.253 36.328C129.82 36.9374 130.802 37.852 132.548 37.852C133.465 37.852 134.229 37.5692 134.708 37.003C135.145 36.5243 135.363 35.593 135.363 34.8526C134.773 35.4321 133.595 35.8111 132.526 35.8111C130.955 35.8111 129.449 35.1139 128.511 34.0255C127.681 33.0669 127.179 31.7607 127.179 30.3238C127.179 27.2098 129.493 24.8144 132.373 24.8144C133.574 24.8144 134.643 25.2067 135.472 25.8815V25.0325H138.201V34.3246Z" fill="#424A3C" fill-opacity="0.6"></path><path fill-rule="evenodd" clip-rule="evenodd" d="M101.783 27.1964C101.586 27.131 101.171 27.0875 100.757 27.0875C99.5128 27.0875 98.5307 27.98 98.1813 28.6115V35.253H95.3447V24.6924H98.0725V25.7588C98.7059 24.9752 99.8623 24.4743 101.15 24.4743C101.564 24.4743 101.804 24.5179 102.11 24.5614L101.783 27.1964Z" fill="#424A3C" fill-opacity="0.6"></path><path fill-rule="evenodd" clip-rule="evenodd" d="M110.322 28.3939C109.732 27.6096 108.794 27.0873 107.703 27.0873C106.044 27.0873 104.974 28.4589 104.974 29.9836C104.974 31.6382 106.175 32.8577 107.768 32.8577C108.838 32.8577 109.776 32.3351 110.322 31.5511V28.3939ZM113.158 35.2527H110.431V34.4035C109.558 35.1439 108.554 35.4709 107.485 35.4709C105.913 35.4709 104.43 34.7737 103.491 33.6852C102.662 32.7267 102.138 31.4205 102.138 29.9836C102.138 26.8696 104.451 24.4742 107.332 24.4742C108.532 24.4742 109.602 24.8665 110.431 25.5412V24.6922H113.158V35.2527Z" fill="#424A3C" fill-opacity="0.6"></path><path fill-rule="evenodd" clip-rule="evenodd" d="M115.479 35.2528V24.6923H118.206V25.5413C119.014 24.888 120.018 24.4742 121.196 24.4742C122.659 24.4742 123.99 25.1275 124.863 26.1727C125.561 27.0003 125.954 28.067 125.954 29.8744V35.2528H123.117V29.6567C123.117 28.6114 122.877 28.067 122.484 27.675C122.113 27.3051 121.546 27.0874 120.891 27.0874C119.691 27.0874 118.709 27.8495 118.315 28.394V35.2528H115.479Z" fill="#424A3C" fill-opacity="0.6"></path><path fill-rule="evenodd" clip-rule="evenodd" d="M147.338 28.7136C147.24 27.6741 146.296 26.6588 145.012 26.6588C143.703 26.6588 142.637 27.65 142.491 28.7136H147.338ZM149.737 33.5761C148.712 34.7957 147.032 35.4707 145.394 35.4707C142.23 35.4707 139.852 33.293 139.852 29.9834C139.852 27.0436 141.859 24.4743 145.002 24.4743C147.926 24.4743 150 26.9347 150 29.8745C150 30.1576 149.977 30.4407 149.934 30.6799H142.601C142.754 32.1607 143.954 33.1842 145.46 33.1842C146.661 33.1842 147.621 32.5091 148.123 31.965L149.737 33.5761Z" fill="#424A3C" fill-opacity="0.6"></path><path fill-rule="evenodd" clip-rule="evenodd" d="M87.8548 32.9471C89.6128 32.9471 90.8157 31.5855 90.8157 29.9008C90.8157 28.2163 89.6128 26.831 87.8548 26.831C86.0968 26.831 84.894 28.2163 84.894 29.9008C84.894 31.5855 86.0968 32.9471 87.8548 32.9471ZM87.8548 24.0618C91.2548 24.0618 93.8232 26.6697 93.8232 29.9008C93.8232 33.1319 91.2548 35.7172 87.8548 35.7172C84.4544 35.7172 81.8867 33.1319 81.8867 29.9008C81.8867 26.6697 84.4544 24.0618 87.8548 24.0618Z" fill="#424A3C" fill-opacity="0.6"></path><path fill-rule="evenodd" clip-rule="evenodd" d="M75.3024 24.7943L73.055 30.041L70.8073 24.7943H64.0687L60.7652 28.2132V19.8953H57.9277V35.3552H60.7652V30.7824L64.8981 35.3552H68.7173L63.2311 29.5412L67.7574 25.0941L71.4658 33.7505L69.1191 39.179H72.302L78.4805 24.7943H75.3024Z" fill="#424A3C" fill-opacity="0.6"></path></svg> 